<?xml version="1.0" encoding="utf-8"?>
<!DOCTYPE svg PUBLIC "-//W3C//DTD SVG 1.1//EN" "http://www.w3.org/Graphics/SVG/1.1/DTD/svg11.dtd">
<svg version="1.1" xmlns="http://www.w3.org/2000/svg" xmlns:xlink="http://www.w3.org/1999/xlink" x="0px" y="0px" width="160px" height="160px" >




<polygon points="40,0 60,0 60,60 0,60 0,40 40,40 40,0" fill="black"></polygon>

<polygon points="100,0 120,0 120,40 160,40 160,60 100,60 100,0" fill="black"></polygon>

<polygon points="0,100 60,100 60,160 40,160 40,120 0,120 0,100" fill="black"></polygon>

<polygon points="100,100 160,100 160,120 120,120 120,160 100,160 100,100" fill="black"></polygon></svg>