<?xml version="1.0" encoding="utf-8"?>
<!DOCTYPE svg PUBLIC "-//W3C//DTD SVG 1.1//EN" "http://www.w3.org/Graphics/SVG/1.1/DTD/svg11.dtd">
<svg version="1.1" xmlns="http://www.w3.org/2000/svg" xmlns:xlink="http://www.w3.org/1999/xlink" x="0px" y="0px" width="280px" height="280px" >


<rect x="0" y="0" width="280" height="280" fill="white" stroke="0"></rect>



<polygon points="0,40 0,80 40,80 40,120 0,120 0,160 40,160 40,200 0,200 0,240 80,240 80,160 120,160 120,240 160,240 160,160 200,160 200,240 280,240 280,200 240,200 240,160 280,160 280,120 240,120 240,80 280,80 280,40 200,40 200,120 160,120 160,40 120,40 120,120 80,120 80,40 0,40" fill="black"></polygon></svg>