<?xml version="1.0" encoding="utf-8"?>
<!DOCTYPE svg PUBLIC "-//W3C//DTD SVG 1.1//EN" "http://www.w3.org/Graphics/SVG/1.1/DTD/svg11.dtd">
<svg version="1.1" xmlns="http://www.w3.org/2000/svg" xmlns:xlink="http://www.w3.org/1999/xlink" x="0px" y="0px" width="800px" height="400px" >

<rect x="800" y="400" fill="black" stroke="black"></rect>




<path d="M 200,100 c10, 200, 200,0" id="chemin" fill="none" stroke="red"></path>
<path d="M 200,100 c10, 200, 200,10" id="chemin" fill="none" stroke="red"></path>
<path d="M 200,100 c10, 200, 200,20" id="chemin" fill="none" stroke="red"></path>
<path d="M 200,100 c10, 200, 200,80" id="chemin" fill="none" stroke="red"></path>
<path d="M 200,100 c10,10 200,10 200,10" id="chemin" fill="none" stroke="red"></path>
<path d="M 200,100 c10,10 200,20 200,20" id="chemin" fill="none" stroke="red"></path>
<path d="M 200,100 c10,10 200,30 200,30" id="chemin" fill="none" stroke="red"></path>
<path d="M 200,100 c10,10 200,40 200,40" id="chemin" fill="none" stroke="red"></path>
<path d="M 200,100 c10,10 200,60 200,60" id="chemin" fill="none" stroke="red"></path>

<loop fill="none" stroke="red"></loop></svg>