<?xml version="1.0" encoding="utf-8"?>
<!DOCTYPE svg PUBLIC "-//W3C//DTD SVG 1.1//EN" "http://www.w3.org/Graphics/SVG/1.1/DTD/svg11.dtd">
<svg version="1.1" xmlns="http://www.w3.org/2000/svg" xmlns:xlink="http://www.w3.org/1999/xlink" x="0px" y="0px" width="500px" height="420px" ><rect x="10" y="10" width="30" height="20" fill="aliceblue" stroke="black" stroke-width="1"></rect><circle cx="300" cy="220" r="200" fill="crimson" stroke="black" stroke-width="1"></circle><line x1="100" y1="100" x2="40" y2="80" fill="lightblue" stroke="black" stroke-width="1"></line><ellipse cx="100" cy="100" rx="40" ry="80" fill="teal" stroke="black" stroke-width="1"></ellipse><polygon points="200,10-250,190-160,210" fill="lightgoldenrodyellow" stroke="black" stroke-width="1"></polygon><polyline points="20,20-40,20-60,60-20,40-20,20" fill="olivedrab" stroke="black" stroke-width="1"></polyline><aj fill="azure" stroke="black" stroke-width="1"><text x="20" y="20" fill="olivedrab" stroke="black" stroke-width="1">hello</text></aj><path d="M150 0 L75 200 L225 200 Z" fill="indigo" stroke="red" stroke-width="2"></path><text x="10" y="20" fill="purple" transform="rotate(330-40,20)">hello</text><a xlink:href="280" onclick="140" title="http://philum.net"><text x="80" y="20" class="1" fill="blue">hello</text></a><text x="20" y="20" fill="green"><tspan x="20" y="20" fill="blue">hello1</tspan><tspan x="20" y="40" fill="green">hello2</tspan></text><defs fill="green"><filter id="f1" x="0" y="0" fill="green"><feGaussianBlur in="SourceGraphic" stdDeviation="15" fill="green"></feGaussianBlur></filter></defs><circle cx="300" cy="200" r="200" filter="url(#1)" fill="mediumseagreen" fill-opacity="0.4"></circle></svg>